HIERARCHY
ROOT Hips
{
  OFFSET 52.589 85.7893 7.5745
  CHANNELS 6 Xposition Yposition Zposition Zrotation Xrotation Yrotation
  JOINT spine
  {
    OFFSET 0 6.3926 0.367606
    CHANNELS 3 Zrotation Xrotation Yrotation
    JOINT spine1
    {
      OFFSET 0 9.17611 0
      CHANNELS 3 Zrotation Xrotation Yrotation
      JOINT spine2
      {
        OFFSET 0 8.79238 0
        CHANNELS 3 Zrotation Xrotation Yrotation
        JOINT Neck
        {
          OFFSET 0 22.5737 1.07624
          CHANNELS 3 Zrotation Xrotation Yrotation
          JOINT Head
          {
            OFFSET 0 6.82011 0
            CHANNELS 3 Zrotation Xrotation Yrotation
            End Site
            {
              OFFSET 0 16.5085 -5.44427
            }
          }
        }
        JOINT RightShoulder
        {
          OFFSET -3.70221 9.49509 -0.515508
          CHANNELS 3 Zrotation Xrotation Yrotation
          JOINT RightArm
          {
            OFFSET 0 12.4537 0
            CHANNELS 3 Zrotation Xrotation Yrotation
            JOINT RightArmRoll
            {
              OFFSET 0 6.28685 0
              CHANNELS 3 Zrotation Xrotation Yrotation
              JOINT RightForeArm
              {
                OFFSET 0 18.3114 0
                CHANNELS 3 Zrotation Xrotation Yrotation
                JOINT RightForeArmRoll
                {
                  OFFSET 0 7.05482 0
                  CHANNELS 3 Zrotation Xrotation Yrotation
                  JOINT RightHand
                  {
                    OFFSET 0 14.1575 0
                    CHANNELS 3 Zrotation Xrotation Yrotation
                    End Site
                    {
                      OFFSET 0 0 0
                    }
                  }
                }
              }
            }
          }
        }
        JOINT LeftShoulder
        {
          OFFSET 3.70221 9.49509 -0.515508
          CHANNELS 3 Zrotation Xrotation Yrotation
          JOINT LeftArm
          {
            OFFSET 0 12.4537 0
            CHANNELS 3 Zrotation Xrotation Yrotation
            JOINT LeftArmRoll
            {
              OFFSET 0 6.28685 0
              CHANNELS 3 Zrotation Xrotation Yrotation
              JOINT LeftForeArm
              {
                OFFSET 0 18.3114 0
                CHANNELS 3 Zrotation Xrotation Yrotation
                JOINT LeftForeArmRoll
                {
                  OFFSET 0 7.05482 0
                  CHANNELS 3 Zrotation Xrotation Yrotation
                  JOINT LeftHand
                  {
                    OFFSET 0 14.1575 0
                    CHANNELS 3 Zrotation Xrotation Yrotation
                    End Site
                    {
                      OFFSET 0 0 0
                    }
                  }
                }
              }
            }
          }
        }
      }
    }
  }
  JOINT RightUpLeg
  {
    OFFSET -5.66616 -1.03903 -0.87161
    CHANNELS 3 Zrotation Xrotation Yrotation
    JOINT RightUpLegRoll
    {
      OFFSET 0 16.6005 0
      CHANNELS 3 Zrotation Xrotation Yrotation
      JOINT RightLeg
      {
        OFFSET 0 -20.5572 0
        CHANNELS 3 Zrotation Xrotation Yrotation
        JOINT RightLegRoll
        {
          OFFSET 0 20.6244 0
          CHANNELS 3 Zrotation Xrotation Yrotation
          JOINT RightFoot
          {
            OFFSET 0 17.1664 0
            CHANNELS 3 Zrotation Xrotation Yrotation
            JOINT RightToeBase
            {
              OFFSET 0 14.3502 0
              CHANNELS 3 Zrotation Xrotation Yrotation
              End Site
              {
                OFFSET 0.00608252 6.9497 -0.801061
              }
            }
          }
        }
      }
    }
  }
  JOINT LeftUpLeg
  {
    OFFSET 5.66616 -1.03903 -0.87161
    CHANNELS 3 Zrotation Xrotation Yrotation
    JOINT LeftUpLegRoll
    {
      OFFSET 0 16.6006 0
      CHANNELS 3 Zrotation Xrotation Yrotation
      JOINT LeftLeg
      {
        OFFSET 0 20.5571 0
        CHANNELS 3 Zrotation Xrotation Yrotation
        JOINT LeftLegRoll
        {
          OFFSET 0 20.8151 0
          CHANNELS 3 Zrotation Xrotation Yrotation
          JOINT LeftFoot
          {
            OFFSET 0 16.9757 0
            CHANNELS 3 Zrotation Xrotation Yrotation
            JOINT LeftToeBase
            {
              OFFSET 0 14.3502 0
              CHANNELS 3 Zrotation Xrotation Yrotation
              End Site
              {
                OFFSET -0.0272592 6.9497 -0.801061
              }
            }
          }
        }
      }
    }
  }
}
MOTION
Frames: 9
Frame Time: 0.00208333
52.1251 85.5157 7.69822 0.180408 0.530772 0.394543 -0.0218052 -2.00509 -0.0674496 -0.056876 -0.00731121 -0.132191 -0.0553111 1.63776 -0.131275 -1.60456 6.71344 0.664061 1.78112 7.45705 0.278068 30.1299 -14.6373 -11.0397 67.1524 34.6817 40.8103 1.89568e-06 -7.91633e-07 2.96684e-07 -3.97683 0.851795 -0.427835 2.74961e-07 -2.56643e-06 -3.00215 8.03012 -4.95136 0.697617 -31.251 -16.8885 13.3578 -68.9932 32.5069 -36.2621 -2.80367e-06 -2.22681e-07 2.45298e-06 7.3217 2.19788 0.365675 1.18199e-06 8.87043e-08 3.00001 -8.0304 -4.95134 -0.697615 174.05 1.38409 1.80654 180 7.01557e-15 178.967 175.933 5.22932 179.828 4.00052e-07 2.66891e-06 0.0330913 -18.2315 67.8501 19.4097 8.13676 25.2367 -3.4836 -174.793 1.61951 0.711895 4.54188e-06 -4.6773e-06 -1.04057 -1.00808 -6.87309 0.453339 5.81824e-08 -4.00362e-06 -0.0795038 18.9721 69.1675 -20.5322 -8.13653 25.2333 3.48686 
52.1312 85.5115 7.70429 0.177925 0.531274 0.399016 -0.0214537 -2.0052 -0.0676713 -0.0561043 -0.00754152 -0.133153 -0.0545276 1.63753 -0.13225 -1.63352 6.7148 0.666001 1.83168 7.46019 0.27339 30.1301 -14.6433 -11.0463 67.1482 34.6877 40.8154 1.89568e-06 -7.91633e-07 2.96684e-07 -3.97862 0.852768 -0.427689 2.74961e-07 -2.56643e-06 -3.00215 8.03012 -4.95136 0.697617 -31.247 -16.8858 13.3554 -68.9907 32.5107 -36.2626 -2.80367e-06 -2.22681e-07 2.45298e-06 7.32179 2.18877 0.366864 1.18199e-06 8.87043e-08 3.00001 -8.0304 -4.95134 -0.697615 174.055 1.37275 1.80478 180 7.01557e-15 178.966 175.931 5.21195 179.828 4.00052e-07 2.66891e-06 0.0338417 -18.2499 67.8528 19.4119 8.13676 25.2367 -3.4836 -174.791 1.61162 0.719668 4.54188e-06 -4.6773e-06 -1.04096 -0.995601 -6.84187 0.454434 5.81824e-08 -4.00362e-06 -0.0783849 18.9555 69.1466 -20.5134 -8.13653 25.2333 3.48686 
52.1324 85.4963 7.69934 0.176336 0.533823 0.401652 -0.0212304 -2.00586 -0.0679572 -0.0554298 -0.00886104 -0.134337 -0.0538387 1.63621 -0.133445 -1.65528 6.71909 0.668463 1.86675 7.45941 0.270817 30.1285 -14.6449 -11.0482 67.1459 34.69 40.8209 1.89568e-06 -7.91633e-07 2.96684e-07 -3.9813 0.853691 -0.427534 2.74961e-07 -2.56643e-06 -3.00215 8.03012 -4.95136 0.697617 -31.2442 -16.8835 13.3533 -68.9886 32.509 -36.2622 -2.80367e-06 -2.22681e-07 2.45298e-06 7.32039 2.18456 0.367493 1.18199e-06 8.87043e-08 3.00001 -8.0304 -4.95134 -0.697615 174.058 1.36758 1.80399 180 7.01557e-15 178.966 175.93 5.20017 179.829 4.00052e-07 2.66891e-06 0.0343889 -18.2627 67.8545 19.4133 8.13676 25.2367 -3.4836 -174.79 1.60853 0.72548 4.54188e-06 -4.6773e-06 -1.0413 -0.986878 -6.82029 0.455209 5.81824e-08 -4.00362e-06 -0.0775926 18.9439 69.1321 -20.5004 -8.13653 25.2333 3.48686 
52.1249 85.4984 7.67878 0.175393 0.538295 0.402905 -0.0210958 -2.00703 -0.0683115 -0.0547715 -0.0112049 -0.135798 -0.0531626 1.63387 -0.134918 -1.67284 6.72637 0.671598 1.89167 7.45523 0.269814 30.1254 -14.6427 -11.046 67.1451 34.6891 40.8267 1.89568e-06 -7.91633e-07 2.96684e-07 -3.98487 0.854643 -0.427364 2.74961e-07 -2.56643e-06 -3.00215 8.03012 -4.95136 0.697617 -31.2422 -16.8812 13.3511 -68.9869 32.5023 -36.2611 -2.80367e-06 -2.22681e-07 2.45298e-06 7.31791 2.18418 0.367677 1.18199e-06 8.87043e-08 3.00001 -8.0304 -4.95134 -0.697615 174.06 1.36712 1.80396 180 7.01556e-15 178.965 175.928 5.19204 179.83 4.00052e-07 2.66891e-06 0.0348096 -18.2717 67.8556 19.4142 8.13676 25.2367 -3.4836 -174.789 1.60909 0.730125 4.54188e-06 -4.6773e-06 -1.04163 -0.980601 -6.80485 0.455775 5.81824e-08 -4.00362e-06 -0.0770018 18.9355 69.1217 -20.491 -8.13653 25.2333 3.48686 
52.1301 85.5069 7.681 0.175027 0.544417 0.40293 -0.0210419 -2.00864 -0.0687253 -0.054134 -0.0144292 -0.137493 -0.0525045 1.63064 -0.136623 -1.68659 6.73624 0.675306 1.90754 7.44806 0.270198 30.1211 -14.6371 -11.0404 67.1458 34.6855 40.833 1.89568e-06 -7.91633e-07 2.96684e-07 -3.98923 0.855624 -0.427183 2.74961e-07 -2.56643e-06 -3.00215 8.03012 -4.95136 0.697617 -31.2411 -16.8789 13.3489 -68.9855 32.4914 -36.2595 -2.80367e-06 -2.22681e-07 2.45298e-06 7.31443 2.18719 0.367467 1.18199e-06 8.87043e-08 3.00001 -8.0304 -4.95134 -0.697615 174.06 1.37083 1.8046 180 7.01556e-15 178.965 175.925 5.18722 179.83 4.00052e-07 2.66891e-06 0.035117 -18.2774 67.8562 19.4146 8.13676 25.2367 -3.4836 -174.79 1.61285 0.733718 4.54188e-06 -4.6773e-06 -1.04193 -0.976511 -6.79492 0.456154 5.81824e-08 -4.00362e-06 -0.0765917 18.93 69.1149 -20.4849 -8.13653 25.2333 3.48686 
52.1144 85.506 7.71578 0.17517 0.551913 0.401885 -0.0210603 -2.01062 -0.0691894 -0.0535222 -0.0183904 -0.139378 -0.0518698 1.62668 -0.138519 -1.69695 6.74829 0.679488 1.91541 7.43834 0.271788 30.1156 -14.6287 -11.0317 67.1476 34.6795 40.8396 1.89568e-06 -7.91633e-07 2.96684e-07 -3.99424 0.856636 -0.426991 2.74961e-07 -2.56643e-06 -3.00215 8.03012 -4.95136 0.697617 -31.2406 -16.8768 13.3466 -68.9844 32.4767 -36.2573 -2.80367e-06 -2.22681e-07 2.45298e-06 7.31006 2.19317 0.366918 1.18199e-06 8.87043e-08 3.00001 -8.0304 -4.95134 -0.697615 174.06 1.37814 1.80582 180 7.01556e-15 178.965 175.923 5.18533 179.831 4.00052e-07 2.66891e-06 0.035324 -18.2801 67.8562 19.4146 8.13676 25.2367 -3.4836 -174.79 1.61939 0.736374 4.54188e-06 -4.6773e-06 -1.04221 -0.974348 -6.78992 0.456368 5.81824e-08 -4.00362e-06 -0.0763413 18.9271 69.1114 -20.4817 -8.13653 25.2333 3.48686 
52.1152 85.5 7.70507 0.175753 0.56051 0.399926 -0.0211428 -2.0129 -0.0696949 -0.0529408 -0.0229445 -0.141411 -0.0512638 1.62213 -0.140563 -1.7043 6.76212 0.684044 1.91638 7.42651 0.2744 30.1091 -14.6179 -11.0206 67.1504 34.6716 40.8464 1.89568e-06 -7.91633e-07 2.96684e-07 -3.99979 0.857679 -0.426791 2.74961e-07 -2.56643e-06 -3.00215 8.03012 -4.95136 0.697617 -31.2407 -16.8747 13.3444 -68.9835 32.459 -36.2546 -2.80367e-06 -2.22681e-07 2.45298e-06 7.3049 2.20168 0.366084 1.18199e-06 8.87043e-08 3.00001 -8.0304 -4.95134 -0.697615 174.058 1.3885 1.80753 180 7.01556e-15 178.965 175.92 5.186 179.831 4.00052e-07 2.66891e-06 0.0354436 -18.2803 67.8557 19.4143 8.13676 25.2367 -3.4836 -174.791 1.62826 0.738206 4.54188e-06 -4.6773e-06 -1.04247 -0.973853 -6.78925 0.45644 5.81824e-08 -4.00362e-06 -0.0762297 18.9265 69.1107 -20.4811 -8.13653 25.2333 3.48686 
52.1372 85.5007 7.69849 0.176705 0.569932 0.397209 -0.0212812 -2.0154 -0.0702325 -0.0523946 -0.0279479 -0.143549 -0.0506917 1.61712 -0.14271 -1.70905 6.77733 0.688875 1.9115 7.41299 0.277853 30.102 -14.6052 -11.0074 67.1541 34.6622 40.8534 1.89568e-06 -7.91633e-07 2.96684e-07 -4.00577 0.858754 -0.426582 2.74961e-07 -2.56643e-06 -3.00215 8.03012 -4.95136 0.697617 -31.2413 -16.8727 13.3423 -68.9828 32.4388 -36.2515 -2.80367e-06 -2.22681e-07 2.45298e-06 7.29904 2.21228 0.365018 1.18199e-06 8.87043e-08 3.00001 -8.0304 -4.95134 -0.697615 174.056 1.40135 1.80967 180 7.01556e-15 178.965 175.916 5.18885 179.832 4.00052e-07 2.66891e-06 0.0354887 -18.2781 67.855 19.4136 8.13676 25.2367 -3.4836 -174.792 1.63901 0.739331 4.54188e-06 -4.6773e-06 -1.04271 -0.974769 -6.7923 0.45639 5.81824e-08 -4.00362e-06 -0.076236 18.9277 69.1125 -20.4827 -8.13653 25.2333 3.48686 
52.1287 85.4977 7.70385 0.17796 0.579905 0.393891 -0.0214671 -2.01806 -0.0707933 -0.0518882 -0.0332567 -0.145749 -0.0501587 1.61181 -0.144919 -1.7116 6.79351 0.693882 1.90187 7.39822 0.281964 30.0942 -14.5912 -10.9929 67.1584 34.6516 40.8604 1.89568e-06 -7.91633e-07 2.96684e-07 -4.01206 0.859861 -0.426369 2.74961e-07 -2.56643e-06 -3.00215 8.03012 -4.95136 0.697617 -31.2421 -16.8709 13.3403 -68.9821 32.4168 -36.248 -2.80367e-06 -2.22681e-07 2.45298e-06 7.29257 2.22455 0.363774 1.18199e-06 8.87043e-08 3.00001 -8.0304 -4.95134 -0.697615 174.052 1.41614 1.81214 180 7.01556e-15 178.965 175.913 5.19354 179.833 4.00052e-07 2.66891e-06 0.0354723 -18.274 67.8539 19.4128 8.13676 25.2367 -3.4836 -174.794 1.65121 0.739863 4.54188e-06 -4.6773e-06 -1.04294 -0.976834 -6.79848 0.456242 5.81824e-08 -4.00362e-06 -0.0763394 18.9305 69.1163 -20.4862 -8.13653 25.2333 3.48686 
